<svg width="20" height="20" viewBox="0 0 20 20" fill="none" xmlns="http://www.w3.org/2000/svg">
<path d="M13.7285 4.50652L15.4927 6.27069M14.8627 2.95236L10.0902 7.72486C9.84286 7.97056 9.67455 8.28453 9.60685 8.62652L9.16602 10.8332L11.3727 10.3915C11.7143 10.3232 12.0277 10.1557 12.2743 9.90902L17.0468 5.13652C17.1903 4.99311 17.304 4.82285 17.3816 4.63547C17.4593 4.44809 17.4992 4.24726 17.4992 4.04444C17.4992 3.84162 17.4593 3.64079 17.3816 3.45341C17.304 3.26603 17.1903 3.09577 17.0468 2.95236C16.9034 2.80894 16.7332 2.69518 16.5458 2.61756C16.3584 2.53995 16.1576 2.5 15.9548 2.5C15.7519 2.5 15.5511 2.53995 15.3637 2.61756C15.1764 2.69518 15.0061 2.80894 14.8627 2.95236Z" stroke="#BABEC3" stroke-width="1.66667" stroke-linecap="round" stroke-linejoin="round"/>
<path d="M15.833 12.4998V14.9998C15.833 15.4419 15.6574 15.8658 15.3449 16.1783C15.0323 16.4909 14.6084 16.6665 14.1663 16.6665H4.99967C4.55765 16.6665 4.13372 16.4909 3.82116 16.1783C3.5086 15.8658 3.33301 15.4419 3.33301 14.9998V5.83317C3.33301 5.39114 3.5086 4.96722 3.82116 4.65466C4.13372 4.3421 4.55765 4.1665 4.99967 4.1665H7.49967" stroke="#BABEC3" stroke-width="1.66667" stroke-linecap="round" stroke-linejoin="round"/>
</svg>
