<svg width="20" height="20" viewBox="0 0 20 20" fill="none" xmlns="http://www.w3.org/2000/svg">
<path d="M7.49967 10.8334H12.4997M7.49967 14.1667H9.99967M3.33301 3.33341V16.6667C3.33301 17.1088 3.5086 17.5327 3.82116 17.8453C4.13372 18.1578 4.55765 18.3334 4.99967 18.3334H14.9997C15.4417 18.3334 15.8656 18.1578 16.1782 17.8453C16.4907 17.5327 16.6663 17.1088 16.6663 16.6667V6.95175C16.6663 6.72971 16.6219 6.50992 16.5358 6.30529C16.4496 6.10065 16.3235 5.91528 16.1647 5.76008L12.4647 2.14175C12.1533 1.8373 11.7352 1.6668 11.2997 1.66675H4.99967C4.55765 1.66675 4.13372 1.84234 3.82116 2.1549C3.5086 2.46746 3.33301 2.89139 3.33301 3.33341Z" stroke="#BABEC3" stroke-width="1.66667" stroke-linecap="round" stroke-linejoin="round"/>
<path d="M11.666 1.66675V5.00008C11.666 5.44211 11.8416 5.86603 12.1542 6.17859C12.4667 6.49115 12.8907 6.66675 13.3327 6.66675H16.666" stroke="#BABEC3" stroke-width="1.66667" stroke-linejoin="round"/>
</svg>
