<svg width="20" height="20" viewBox="0 0 20 20" fill="none" xmlns="http://www.w3.org/2000/svg">
<path fill-rule="evenodd" clip-rule="evenodd" d="M5.49967 15.0002C5.36707 15.0002 5.23989 15.0528 5.14612 15.1466C5.05235 15.2404 4.99967 15.3676 4.99967 15.5002C4.99967 15.6328 5.05235 15.7599 5.14612 15.8537C5.23989 15.9475 5.36707 16.0002 5.49967 16.0002C5.63228 16.0002 5.75946 15.9475 5.85323 15.8537C5.947 15.7599 5.99967 15.6328 5.99967 15.5002C5.99967 15.3676 5.947 15.2404 5.85323 15.1466C5.75946 15.0528 5.63228 15.0002 5.49967 15.0002ZM3.33301 15.5002C3.33301 15.2156 3.38905 14.9339 3.49794 14.671C3.60682 14.4081 3.76642 14.1693 3.96761 13.9681C4.1688 13.7669 4.40765 13.6073 4.67053 13.4984C4.9334 13.3895 5.21514 13.3335 5.49967 13.3335C5.7842 13.3335 6.06595 13.3895 6.32882 13.4984C6.59169 13.6073 6.83055 13.7669 7.03174 13.9681C7.23293 14.1693 7.39253 14.4081 7.50141 14.671C7.6103 14.9339 7.66634 15.2156 7.66634 15.5002C7.66634 16.0748 7.43807 16.6259 7.03174 17.0322C6.62541 17.4386 6.07431 17.6668 5.49967 17.6668C4.92504 17.6668 4.37394 17.4386 3.96761 17.0322C3.56128 16.6259 3.33301 16.0748 3.33301 15.5002ZM14.6663 15.0002C14.5337 15.0002 14.4066 15.0528 14.3128 15.1466C14.219 15.2404 14.1663 15.3676 14.1663 15.5002C14.1663 15.6328 14.219 15.7599 14.3128 15.8537C14.4066 15.9475 14.5337 16.0002 14.6663 16.0002C14.7989 16.0002 14.9261 15.9475 15.0199 15.8537C15.1137 15.7599 15.1663 15.6328 15.1663 15.5002C15.1663 15.3676 15.1137 15.2404 15.0199 15.1466C14.9261 15.0528 14.7989 15.0002 14.6663 15.0002ZM12.4997 15.5002C12.4997 14.9255 12.7279 14.3744 13.1343 13.9681C13.5406 13.5618 14.0917 13.3335 14.6663 13.3335C15.241 13.3335 15.7921 13.5618 16.1984 13.9681C16.6047 14.3744 16.833 14.9255 16.833 15.5002C16.833 16.0748 16.6047 16.6259 16.1984 17.0322C15.7921 17.4386 15.241 17.6668 14.6663 17.6668C14.0917 17.6668 13.5406 17.4386 13.1343 17.0322C12.7279 16.6259 12.4997 16.0748 12.4997 15.5002Z" fill="#BABEC3"/>
<path fill-rule="evenodd" clip-rule="evenodd" d="M5.24783 5H9.75283C10.2445 5 10.6678 5 11.0153 5.03167C11.3828 5.065 11.747 5.14 12.0895 5.33833C12.465 5.55648 12.7772 5.86867 12.9953 6.24417C13.1945 6.58667 13.2687 6.95083 13.302 7.31833C13.3337 7.66583 13.3337 8.08917 13.3337 8.58083V15H11.667V8.61667C11.667 8.07917 11.6662 7.7325 11.642 7.46917C11.6195 7.21833 11.5803 7.1275 11.5545 7.08167C11.4817 6.95623 11.3774 6.85196 11.252 6.77917C11.2062 6.75333 11.1153 6.71417 10.8645 6.69167C10.6003 6.66667 10.2545 6.66667 9.71699 6.66667H5.28366C4.74616 6.66667 4.39949 6.6675 4.13616 6.69167C3.88533 6.71417 3.79449 6.75333 3.74866 6.77917C3.62322 6.85196 3.51895 6.95623 3.44616 7.08167C3.42033 7.12667 3.38116 7.21833 3.35866 7.46917C3.33366 7.73333 3.33366 8.07917 3.33366 8.61667V15H1.66699V8.58083C1.66699 8.08917 1.66699 7.66583 1.69866 7.31833C1.73199 6.95083 1.80699 6.58667 2.00533 6.24417C2.22347 5.86867 2.53567 5.55648 2.91116 5.33833C3.25366 5.13917 3.61783 5.065 3.98533 5.03167C4.33283 5 4.75616 5 5.24783 5Z" fill="#BABEC3"/>
<path fill-rule="evenodd" clip-rule="evenodd" d="M7.50033 8.125C7.72134 8.125 7.9333 8.2128 8.08958 8.36908C8.24586 8.52536 8.33366 8.73732 8.33366 8.95833V11.875C8.33366 12.096 8.24586 12.308 8.08958 12.4643C7.9333 12.6205 7.72134 12.7083 7.50033 12.7083C7.27931 12.7083 7.06735 12.6205 6.91107 12.4643C6.75479 12.308 6.66699 12.096 6.66699 11.875V8.95833C6.66699 8.73732 6.75479 8.52536 6.91107 8.36908C7.06735 8.2128 7.27931 8.125 7.50033 8.125Z" fill="#BABEC3"/>
<path fill-rule="evenodd" clip-rule="evenodd" d="M5.20801 10.4167C5.20801 10.1957 5.29581 9.98369 5.45209 9.82741C5.60837 9.67113 5.82033 9.58333 6.04134 9.58333H8.95801C9.17902 9.58333 9.39098 9.67113 9.54726 9.82741C9.70354 9.98369 9.79134 10.1957 9.79134 10.4167C9.79134 10.6377 9.70354 10.8496 9.54726 11.0059C9.39098 11.1622 9.17902 11.25 8.95801 11.25H6.04134C5.82033 11.25 5.60837 11.1622 5.45209 11.0059C5.29581 10.8496 5.20801 10.6377 5.20801 10.4167ZM11.6663 8.33333C11.6663 8.11232 11.7541 7.90036 11.9104 7.74408C12.0667 7.5878 12.2787 7.5 12.4997 7.5H15.5913C15.8117 7.50007 16.0281 7.55838 16.2186 7.66901C16.4091 7.77965 16.5671 7.93868 16.6763 8.13L18.168 10.7408C18.276 10.9296 18.3329 11.1433 18.333 11.3608V14.5833C18.333 14.9149 18.2013 15.2328 17.9669 15.4672C17.7325 15.7016 17.4145 15.8333 17.083 15.8333H16.2497C16.0287 15.8333 15.8167 15.7455 15.6604 15.5893C15.5041 15.433 15.4163 15.221 15.4163 15C15.4163 14.779 15.5041 14.567 15.6604 14.4107C15.8167 14.2545 16.0287 14.1667 16.2497 14.1667H16.6663V11.4717L15.3497 9.16667H12.4997C12.2787 9.16667 12.0667 9.07887 11.9104 8.92259C11.7541 8.76631 11.6663 8.55435 11.6663 8.33333Z" fill="#BABEC3"/>
<path fill-rule="evenodd" clip-rule="evenodd" d="M11.667 11.6668C11.667 11.4458 11.7548 11.2339 11.9111 11.0776C12.0674 10.9213 12.2793 10.8335 12.5003 10.8335H17.5003C17.7213 10.8335 17.9333 10.9213 18.0896 11.0776C18.2459 11.2339 18.3337 11.4458 18.3337 11.6668C18.3337 11.8878 18.2459 12.0998 18.0896 12.2561C17.9333 12.4124 17.7213 12.5002 17.5003 12.5002H12.5003C12.2793 12.5002 12.0674 12.4124 11.9111 12.2561C11.7548 12.0998 11.667 11.8878 11.667 11.6668ZM1.66699 15.0002C1.66699 14.7791 1.75479 14.5672 1.91107 14.4109C2.06735 14.2546 2.27931 14.1668 2.50033 14.1668H4.16699C4.38801 14.1668 4.59997 14.2546 4.75625 14.4109C4.91253 14.5672 5.00033 14.7791 5.00033 15.0002C5.00033 15.2212 4.91253 15.4331 4.75625 15.5894C4.59997 15.7457 4.38801 15.8335 4.16699 15.8335H2.50033C2.27931 15.8335 2.06735 15.7457 1.91107 15.5894C1.75479 15.4331 1.66699 15.2212 1.66699 15.0002ZM6.25033 15.0002C6.25033 14.7791 6.33812 14.5672 6.4944 14.4109C6.65068 14.2546 6.86265 14.1668 7.08366 14.1668H12.917C13.138 14.1668 13.35 14.2546 13.5062 14.4109C13.6625 14.5672 13.7503 14.7791 13.7503 15.0002C13.7503 15.2212 13.6625 15.4331 13.5062 15.5894C13.35 15.7457 13.138 15.8335 12.917 15.8335H7.08366C6.86265 15.8335 6.65068 15.7457 6.4944 15.5894C6.33812 15.4331 6.25033 15.2212 6.25033 15.0002Z" fill="#BABEC3"/>
</svg>
