<svg width="20" height="20" viewBox="0 0 20 20" fill="none" xmlns="http://www.w3.org/2000/svg">
<path d="M11.2497 6.66675H3.33301M3.33301 5.00008V15.8334C3.33301 16.0544 3.42081 16.2664 3.57709 16.4227C3.73337 16.579 3.94533 16.6667 4.16634 16.6667H15.833C16.054 16.6667 16.266 16.579 16.4223 16.4227C16.5785 16.2664 16.6663 16.0544 16.6663 15.8334V7.50008C16.6663 7.27907 16.5785 7.06711 16.4223 6.91083C16.266 6.75455 16.054 6.66675 15.833 6.66675H11.6397C11.5175 6.6667 11.3969 6.63981 11.2863 6.58796C11.1757 6.53612 11.0778 6.4606 10.9997 6.36675L9.41634 4.46675C9.33817 4.3729 9.24032 4.29737 9.12972 4.24553C9.01913 4.19369 8.89849 4.16679 8.77634 4.16675H4.16634C3.94533 4.16675 3.73337 4.25455 3.57709 4.41083C3.42081 4.56711 3.33301 4.77907 3.33301 5.00008Z" stroke="#BABEC3" stroke-width="1.66667" stroke-linecap="round" stroke-linejoin="round"/>
</svg>
