<svg width="20" height="20" viewBox="0 0 20 20" fill="none" xmlns="http://www.w3.org/2000/svg">
<g clip-path="url(#clip0_123_4205)">
<mask id="mask0_123_4205" style="mask-type:luminance" maskUnits="userSpaceOnUse" x="0" y="0" width="20" height="20">
<path d="M0 0H20V20H0V0Z" fill="white"/>
</mask>
<g mask="url(#mask0_123_4205)">
<path fill-rule="evenodd" clip-rule="evenodd" d="M8.75 8.125C9.41304 8.125 10.0489 7.86161 10.5178 7.39277C10.9866 6.92393 11.25 6.28804 11.25 5.625C11.25 4.96196 10.9866 4.32607 10.5178 3.85723C10.0489 3.38839 9.41304 3.125 8.75 3.125C8.08696 3.125 7.45107 3.38839 6.98223 3.85723C6.51339 4.32607 6.25 4.96196 6.25 5.625C6.25 6.28804 6.51339 6.92393 6.98223 7.39277C7.45107 7.86161 8.08696 8.125 8.75 8.125ZM8.75 10C9.91032 10 11.0231 9.53906 11.8436 8.71859C12.6641 7.89812 13.125 6.78532 13.125 5.625C13.125 4.46468 12.6641 3.35188 11.8436 2.53141C11.0231 1.71094 9.91032 1.25 8.75 1.25C7.58968 1.25 6.47688 1.71094 5.65641 2.53141C4.83594 3.35188 4.375 4.46468 4.375 5.625C4.375 6.78532 4.83594 7.89812 5.65641 8.71859C6.47688 9.53906 7.58968 10 8.75 10ZM8.125 11.6237C8.125 11.0862 7.675 10.6562 7.14375 10.7188C3.09125 11.1937 0 13.41 0 15.625C0 16.4538 0.32924 17.2487 0.915291 17.8347C1.50134 18.4208 2.2962 18.75 3.125 18.75H7.1875C7.43614 18.75 7.6746 18.6512 7.85041 18.4754C8.02623 18.2996 8.125 18.0611 8.125 17.8125C8.125 17.5639 8.02623 17.3254 7.85041 17.1496C7.6746 16.9738 7.43614 16.875 7.1875 16.875H3.125C2.79348 16.875 2.47554 16.7433 2.24112 16.5089C2.0067 16.2745 1.875 15.9565 1.875 15.625C1.875 15.3687 2.15 14.6138 3.525 13.8013C4.48125 13.2363 5.765 12.785 7.23625 12.5962C7.7325 12.5325 8.125 12.1237 8.125 11.6237ZM18.1275 13.9862C17.5354 13.8319 17.0109 13.4862 16.6356 13.0028C16.2603 12.5195 16.0553 11.9257 16.0525 11.3137L15.2025 10.9937C14.8186 11.5137 14.2759 11.8944 13.6563 12.0785C13.0368 12.2625 12.3742 12.2398 11.7688 12.0138L11.2612 12.725C11.9738 13.71 11.9738 15.0625 11.2612 16.0462L11.7688 16.7575C12.3742 16.5315 13.0368 16.5088 13.6563 16.6928C14.2759 16.8768 14.8186 17.2576 15.2025 17.7775L16.0525 17.4587C16.055 16.8466 16.2599 16.2525 16.6352 15.7689C17.0105 15.2853 17.5352 14.9394 18.1275 14.785V13.9862ZM17.9875 10.9913C18.0288 10.8814 18.0481 10.7644 18.0442 10.647C18.0403 10.5297 18.0133 10.4143 17.9648 10.3074C17.9162 10.2005 17.8471 10.1042 17.7614 10.024C17.6756 9.94377 17.5749 9.88126 17.465 9.84L15.2175 8.9975C15.0845 8.94757 14.943 8.92432 14.8011 8.92909C14.6592 8.93385 14.5195 8.96654 14.3902 9.02527C14.2609 9.08401 14.1444 9.16765 14.0475 9.27141C13.9505 9.37517 13.8749 9.49702 13.825 9.63C13.7654 9.78533 13.671 9.92492 13.549 10.038C13.4271 10.1512 13.2807 10.2348 13.1214 10.2825C12.962 10.3302 12.7938 10.3406 12.6297 10.3131C12.4657 10.2856 12.3101 10.2208 12.175 10.1237C11.9376 9.95394 11.6428 9.88493 11.3547 9.93176C11.0667 9.9786 10.8088 10.1375 10.6375 10.3737L9.2925 12.2563C9.21867 12.3592 9.16588 12.4757 9.13716 12.599C9.10844 12.7224 9.10436 12.8502 9.12515 12.9752C9.14594 13.1002 9.19118 13.2198 9.2583 13.3272C9.32541 13.4346 9.41307 13.5278 9.51625 13.6012C10.0538 13.9862 10.0538 14.7862 9.51625 15.17C9.41297 15.2434 9.3252 15.3364 9.25797 15.4438C9.19074 15.5512 9.14537 15.6708 9.12446 15.7958C9.10356 15.9207 9.10753 16.0486 9.13615 16.172C9.16477 16.2954 9.21748 16.412 9.29125 16.515L10.6375 18.3975C10.8088 18.6338 11.0667 18.7926 11.3547 18.8395C11.6428 18.8863 11.9376 18.8173 12.175 18.6475C12.3101 18.5504 12.4657 18.4856 12.6297 18.4581C12.7938 18.4306 12.962 18.4411 13.1214 18.4888C13.2807 18.5365 13.4271 18.6201 13.549 18.7332C13.671 18.8463 13.7654 18.9859 13.825 19.1413C13.8749 19.2742 13.9505 19.3961 14.0475 19.4998C14.1444 19.6036 14.2609 19.6872 14.3902 19.746C14.5195 19.8047 14.6592 19.8374 14.8011 19.8422C14.943 19.8469 15.0845 19.8237 15.2175 19.7738L17.465 18.9313C17.6867 18.8479 17.8662 18.68 17.9642 18.4644C18.0622 18.2487 18.0706 18.003 17.9875 17.7812C17.9368 17.646 17.9196 17.5004 17.9375 17.3571C17.9553 17.2137 18.0076 17.0768 18.09 16.9581C18.1723 16.8394 18.2822 16.7425 18.4102 16.6755C18.5382 16.6086 18.6805 16.5736 18.825 16.5737H18.9925C19.2606 16.5734 19.5176 16.4668 19.7072 16.2772C19.8968 16.0876 20.0034 15.8306 20.0037 15.5625V13.2088C20.0031 12.9409 19.8963 12.6842 19.7068 12.4949C19.5172 12.3056 19.2604 12.1991 18.9925 12.1987H18.8237C18.6794 12.1986 18.5372 12.1636 18.4094 12.0966C18.2815 12.0295 18.1718 11.9325 18.0896 11.8139C18.0074 11.6952 17.9552 11.5584 17.9374 11.4151C17.9196 11.2718 17.9368 11.1264 17.9875 10.9913ZM15.6962 14.315C15.7017 14.491 15.6717 14.6663 15.6081 14.8305C15.5445 14.9948 15.4485 15.1445 15.3259 15.2709C15.2034 15.3974 15.0566 15.4979 14.8945 15.5665C14.7323 15.6352 14.558 15.6705 14.3819 15.6705C14.2058 15.6705 14.0315 15.6352 13.8693 15.5665C13.7071 15.4979 13.5604 15.3974 13.4378 15.2709C13.3152 15.1445 13.2193 14.9948 13.1557 14.8305C13.0921 14.6663 13.0621 14.491 13.0675 14.315C13.078 13.9734 13.2211 13.6494 13.4665 13.4115C13.7118 13.1736 14.0401 13.0405 14.3819 13.0405C14.7236 13.0405 15.0519 13.1736 15.2973 13.4115C15.5426 13.6494 15.6857 13.9734 15.6962 14.315Z" fill="#BABEC3"/>
</g>
</g>
<defs>
<clipPath id="clip0_123_4205">
<rect width="20" height="20" fill="white"/>
</clipPath>
</defs>
</svg>
