<svg width="18" height="19" viewBox="0 0 18 19" fill="none" xmlns="http://www.w3.org/2000/svg">
<path d="M9.00033 0.666504C13.6028 0.666504 17.3337 4.39734 17.3337 8.99984C17.3337 13.6023 13.6028 17.3332 9.00033 17.3332C4.39783 17.3332 0.666992 13.6023 0.666992 8.99984C0.666992 4.39734 4.39783 0.666504 9.00033 0.666504ZM9.00033 2.33317C7.23222 2.33317 5.53652 3.03555 4.28628 4.28579C3.03604 5.53603 2.33366 7.23173 2.33366 8.99984C2.33366 10.7679 3.03604 12.4636 4.28628 13.7139C5.53652 14.9641 7.23222 15.6665 9.00033 15.6665C10.7684 15.6665 12.4641 14.9641 13.7144 13.7139C14.9646 12.4636 15.667 10.7679 15.667 8.99984C15.667 7.23173 14.9646 5.53603 13.7144 4.28579C12.4641 3.03555 10.7684 2.33317 9.00033 2.33317ZM9.00033 12.3332C9.22134 12.3332 9.4333 12.421 9.58958 12.5772C9.74586 12.7335 9.83366 12.9455 9.83366 13.1665C9.83366 13.3875 9.74586 13.5995 9.58958 13.7558C9.4333 13.912 9.22134 13.9998 9.00033 13.9998C8.77931 13.9998 8.56735 13.912 8.41107 13.7558C8.25479 13.5995 8.16699 13.3875 8.16699 13.1665C8.16699 12.9455 8.25479 12.7335 8.41107 12.5772C8.56735 12.421 8.77931 12.3332 9.00033 12.3332ZM9.00033 4.4165C9.70222 4.41653 10.3822 4.66097 10.9235 5.10784C11.4647 5.55471 11.8335 6.17612 11.9664 6.86532C12.0993 7.55452 11.9881 8.26849 11.6518 8.8846C11.3155 9.5007 10.7752 9.98047 10.1237 10.2415C10.0272 10.277 9.94016 10.3343 9.86949 10.409C9.83283 10.4507 9.82699 10.504 9.82783 10.559L9.83366 10.6665C9.83342 10.8789 9.75209 11.0832 9.60629 11.2376C9.46048 11.3921 9.2612 11.485 9.04916 11.4975C8.83713 11.5099 8.62834 11.4409 8.46547 11.3046C8.30259 11.1683 8.19791 10.9749 8.17283 10.764L8.16699 10.6665V10.4582C8.16699 9.49734 8.94199 8.92067 9.50366 8.69484C9.73225 8.60355 9.93167 8.45173 10.0805 8.25566C10.2293 8.05959 10.3219 7.82669 10.3483 7.58197C10.3748 7.33724 10.334 7.08994 10.2305 6.86662C10.127 6.6433 9.9646 6.45239 9.76077 6.3144C9.55694 6.17641 9.31937 6.09655 9.07358 6.08339C8.82778 6.07024 8.58305 6.12428 8.36565 6.23973C8.14826 6.35517 7.96642 6.52766 7.83965 6.73865C7.71289 6.94965 7.646 7.19119 7.64616 7.43734C7.64616 7.65835 7.55836 7.87031 7.40208 8.02659C7.2458 8.18287 7.03384 8.27067 6.81283 8.27067C6.59181 8.27067 6.37985 8.18287 6.22357 8.02659C6.06729 7.87031 5.97949 7.65835 5.97949 7.43734C5.97949 6.63616 6.29776 5.8678 6.86427 5.30129C7.43079 4.73477 8.19915 4.4165 9.00033 4.4165Z" fill="#BABEC3"/>
</svg>
