<svg width="20" height="20" viewBox="0 0 20 20" fill="none" xmlns="http://www.w3.org/2000/svg">
<path d="M16.68 1.6665C15.7525 1.6665 15 3.90484 15 6.6665H16.68C17.49 6.6665 17.8942 6.6665 18.145 6.38734C18.395 6.10734 18.3517 5.739 18.265 5.00317C18.0333 3.05817 17.4117 1.6665 16.68 1.6665Z" stroke="#BABEC3" stroke-width="1.25" stroke-linecap="round" stroke-linejoin="round"/>
<path d="M15.0003 6.7115V15.5382C15.0003 16.7973 15.0003 17.4273 14.6153 17.6757C13.9862 18.0807 13.0137 17.2307 12.5245 16.9223C12.1203 16.6673 11.9187 16.5407 11.6945 16.5332C11.452 16.5248 11.2462 16.6473 10.8095 16.9223L9.21699 17.9265C8.78699 18.1973 8.57283 18.3332 8.33366 18.3332C8.09449 18.3332 7.87949 18.1973 7.45033 17.9265L5.85866 16.9223C5.45366 16.6673 5.25199 16.5407 5.02783 16.5332C4.78533 16.5248 4.57949 16.6473 4.14283 16.9223C3.65366 17.2307 2.68116 18.0807 2.05116 17.6757C1.66699 17.4273 1.66699 16.7982 1.66699 15.5382V6.7115C1.66699 4.33317 1.66699 3.14484 2.39949 2.40567C3.13116 1.6665 4.31033 1.6665 6.66699 1.6665H16.667" stroke="#BABEC3" stroke-width="1.25" stroke-linecap="round" stroke-linejoin="round"/>
<path d="M8.33366 6.66634C7.41283 6.66634 6.66699 7.22634 6.66699 7.91634C6.66699 8.60634 7.41283 9.16634 8.33366 9.16634C9.25449 9.16634 10.0003 9.72634 10.0003 10.4163C10.0003 11.1063 9.25449 11.6663 8.33366 11.6663M8.33366 6.66634C9.05866 6.66634 9.67699 7.01384 9.90533 7.49967M8.33366 6.66634V5.83301M8.33366 11.6663C7.60866 11.6663 6.99033 11.3188 6.76199 10.833M8.33366 11.6663V12.4997" stroke="#BABEC3" stroke-width="1.25" stroke-linecap="round" stroke-linejoin="round"/>
</svg>
