<svg width="20" height="20" viewBox="0 0 20 20" fill="none" xmlns="http://www.w3.org/2000/svg">
<path d="M12.5 2.5V5.83333C12.5 6.05435 12.5878 6.26631 12.7441 6.42259C12.9004 6.57887 13.1123 6.66667 13.3333 6.66667H16.6667" stroke="#BABEC3" stroke-width="2" stroke-linecap="round" stroke-linejoin="round"/>
<path d="M15 14.1667H9.16667C8.72464 14.1667 8.30072 13.9911 7.98816 13.6785C7.6756 13.366 7.5 12.942 7.5 12.5V4.16667C7.5 3.72464 7.6756 3.30072 7.98816 2.98816C8.30072 2.67559 8.72464 2.5 9.16667 2.5H12.5L16.6667 6.66667V12.5C16.6667 12.942 16.4911 13.366 16.1785 13.6785C15.866 13.9911 15.442 14.1667 15 14.1667Z" stroke="#BABEC3" stroke-width="2" stroke-linecap="round" stroke-linejoin="round"/>
<path d="M13.3337 14.1666V15.8333C13.3337 16.2753 13.1581 16.6992 12.8455 17.0118C12.5329 17.3243 12.109 17.4999 11.667 17.4999H5.83366C5.39163 17.4999 4.96771 17.3243 4.65515 17.0118C4.34259 16.6992 4.16699 16.2753 4.16699 15.8333V7.49992C4.16699 7.05789 4.34259 6.63397 4.65515 6.32141C4.96771 6.00885 5.39163 5.83325 5.83366 5.83325H7.50033" stroke="#BABEC3" stroke-width="2" stroke-linecap="round" stroke-linejoin="round"/>
</svg>
