<svg width="18" height="22" viewBox="0 0 18 22" fill="none" xmlns="http://www.w3.org/2000/svg">
<path d="M1.268 17.8451C1.493 19.5151 2.876 20.8241 4.56 20.9011C5.976 20.9661 7.415 21.0001 9 21.0001C10.585 21.0001 12.024 20.9661 13.44 20.9001C15.124 20.8241 16.507 19.5151 16.732 17.8451C16.879 16.7551 17 15.6381 17 14.5001C17 13.3621 16.879 12.2451 16.732 11.1551C16.507 9.48506 15.124 8.17606 13.44 8.09906C11.961 8.03146 10.4806 7.99845 9 8.00006C7.415 8.00006 5.976 8.03406 4.56 8.10006C2.876 8.17606 1.493 9.48506 1.268 11.1551C1.12 12.2451 1 13.3621 1 14.5001C1 15.6381 1.121 16.7551 1.268 17.8451Z" stroke="#105AA1" stroke-width="1.5" stroke-linecap="round" stroke-linejoin="round"/>
<path d="M4.5 8V5.5C4.5 4.30653 4.97411 3.16193 5.81802 2.31802C6.66193 1.47411 7.80653 1 9 1C10.1935 1 11.3381 1.47411 12.182 2.31802C13.0259 3.16193 13.5 4.30653 13.5 5.5V8M13 14.49V14.5M9 14.49V14.5M5 14.49V14.5" stroke="#105AA1" stroke-width="1.5" stroke-linecap="round" stroke-linejoin="round"/>
</svg>
