<svg width="28" height="28" viewBox="0 0 28 28" fill="none" xmlns="http://www.w3.org/2000/svg">
<path d="M22.1667 15.8503V11.6666C22.1667 7.91342 19.6175 4.75175 16.1642 3.80092C15.8223 2.93992 14.987 2.33325 14 2.33325C13.013 2.33325 12.1777 2.93992 11.8358 3.80092C8.3825 4.75292 5.83333 7.91342 5.83333 11.6666V15.8503L3.84183 17.8418C3.62303 18.0605 3.50007 18.3572 3.5 18.6666V20.9999C3.5 21.3093 3.62292 21.6061 3.84171 21.8249C4.0605 22.0437 4.35725 22.1666 4.66667 22.1666H23.3333C23.6428 22.1666 23.9395 22.0437 24.1583 21.8249C24.3771 21.6061 24.5 21.3093 24.5 20.9999V18.6666C24.4999 18.3572 24.377 18.0605 24.1582 17.8418L22.1667 15.8503ZM22.1667 19.8333H5.83333V19.1496L7.82483 17.1581C8.04364 16.9393 8.1666 16.6426 8.16667 16.3333V11.6666C8.16667 8.45009 10.7835 5.83325 14 5.83325C17.2165 5.83325 19.8333 8.45009 19.8333 11.6666V16.3333C19.8333 16.6436 19.9558 16.9399 20.1752 17.1581L22.1667 19.1496V19.8333ZM14 25.6666C14.7225 25.6675 15.4274 25.4433 16.0166 25.0251C16.6058 24.6069 17.0501 24.0156 17.2877 23.3333H10.7123C10.9499 24.0156 11.3942 24.6069 11.9834 25.0251C12.5726 25.4433 13.2775 25.6675 14 25.6666Z" fill="#778094"/>
</svg>
