<svg width="216" height="105" viewBox="0 0 216 105" fill="none" xmlns="http://www.w3.org/2000/svg">
<path d="M15.5391 65.2109C14.4141 65.0703 12.2461 65 9.03516 65H6.22266V18.1016C7.72266 18.1953 9.375 18.2422 11.1797 18.2422C12.9844 18.2422 14.2617 18.1484 15.0117 17.9609L26.8242 38.0352L38.1797 17.9609C38.9297 18.1484 40.3594 18.2422 42.4688 18.2422C44.5781 18.2422 46.3828 18.1953 47.8828 18.1016V65H45.0703C41.8594 65 39.6914 65.0703 38.5664 65.2109V33.7109L27.0703 54.2773L15.5391 35.3633V65.2109ZM60.2536 77.2344L62.5739 75.3711C66.0661 72.5352 68.9606 68.3516 71.2575 62.8203L72.8747 58.918L59.4098 28.2617H69.2536L77.6911 49.4961L85.5309 28.2617H95.6559C94.4372 29.9492 92.9489 33.0898 91.1911 37.6836L85.9177 50.7266C78.863 67.3203 73.3317 77.2109 69.3239 80.3984L60.2536 77.2344Z" fill="#222222"/>
<path d="M104.23 17.9961C107.488 17.5742 110.827 17.3633 114.249 17.3633C120.624 17.3633 125.464 18.8633 128.769 21.8633C132.097 24.8398 133.761 29.3047 133.761 35.2578C133.761 40.5781 131.945 44.7852 128.312 47.8789C124.913 50.7852 120.542 52.2383 115.199 52.2383C114.589 52.2383 113.921 52.2031 113.195 52.1328V65H104.23V17.9961ZM115.304 25.8359C114.601 25.8359 113.898 25.8594 113.195 25.9062V44.3984C113.945 44.4922 114.859 44.5391 115.937 44.5391C117.015 44.5391 118.14 44.3164 119.312 43.8711C120.484 43.4023 121.468 42.7578 122.265 41.9375C123.929 40.2266 124.761 37.9766 124.761 35.1875C124.761 28.9531 121.609 25.8359 115.304 25.8359ZM152.144 65C148.698 65 146.413 65.0703 145.288 65.2109V18.0312C145.851 18.1719 147.011 18.2422 148.769 18.2422C150.55 18.2422 152.612 18.1953 154.956 18.1016V56.5625H162.233C164.343 56.5625 166.03 56.4922 167.296 56.3516C167.132 61.8359 167.05 64.6836 167.05 64.8945V65.2461C164.753 65.082 160.898 65 155.483 65H152.144ZM200.655 17.3633C205.038 17.3633 208.776 18.125 211.87 19.6484V30.4062L211.8 30.4766C210.487 28.4609 207.721 27.125 203.503 26.4688C202.26 26.2578 200.69 26.1523 198.792 26.1523C196.893 26.1523 195.03 26.5156 193.202 27.2422C191.374 27.9453 189.874 28.9531 188.702 30.2656C186.428 32.8203 185.292 36.4648 185.292 41.1992C185.292 46.707 186.733 50.8086 189.616 53.5039C192.007 55.7539 195.171 56.8789 199.108 56.8789C203.561 56.8789 207.171 55.9297 209.936 54.0312C210.944 53.3516 211.8 52.5078 212.503 51.5L212.608 51.5703V61.4141C209.022 64.3906 204.194 65.8789 198.124 65.8789C190.975 65.8789 185.374 63.6055 181.319 59.0586C177.428 54.7227 175.483 48.9805 175.483 41.832C175.483 34.2617 177.616 28.2969 181.882 23.9375C186.194 19.5547 192.452 17.3633 200.655 17.3633Z" fill="#105AA1"/>
<path d="M1.075 102V93H4.65C5.29167 93 5.8375 93.1042 6.2875 93.3125C6.7375 93.5208 7.07917 93.8208 7.3125 94.2125C7.55417 94.6042 7.675 95.075 7.675 95.625C7.675 96.175 7.55417 96.65 7.3125 97.05C7.07917 97.4417 6.7375 97.7458 6.2875 97.9625C5.8375 98.1792 5.29167 98.2875 4.65 98.2875H1.825V97.3875H4.6125C5.27917 97.3875 5.78333 97.2375 6.125 96.9375C6.475 96.6292 6.65 96.1917 6.65 95.625C6.65 95.0583 6.47917 94.6292 6.1375 94.3375C5.79583 94.0458 5.2875 93.9 4.6125 93.9H2.1V102H1.075ZM11.2031 102V95.625H12.1406V97.25H12.2031V102H11.2031ZM12.2031 98.675L12.0406 97.1625C12.1906 96.6208 12.4573 96.2083 12.8406 95.925C13.224 95.6417 13.6656 95.5 14.1656 95.5C14.374 95.5 14.5156 95.5167 14.5906 95.55V96.5125C14.549 96.4958 14.4906 96.4875 14.4156 96.4875C14.3406 96.4792 14.249 96.475 14.1406 96.475C13.5073 96.475 13.024 96.6667 12.6906 97.05C12.3656 97.425 12.2031 97.9667 12.2031 98.675ZM20.5406 102.125C19.9156 102.125 19.3656 101.979 18.8906 101.687C18.4156 101.396 18.0448 101 17.7781 100.5C17.5198 99.9917 17.3906 99.4208 17.3906 98.7875C17.3906 98.1458 17.524 97.5792 17.7906 97.0875C18.0573 96.5958 18.424 96.2083 18.8906 95.925C19.3656 95.6417 19.9156 95.5 20.5406 95.5C21.174 95.5 21.724 95.6417 22.1906 95.925C22.6656 96.2083 23.0323 96.5958 23.2906 97.0875C23.5573 97.5792 23.6906 98.1458 23.6906 98.7875C23.6906 99.4208 23.5573 99.9917 23.2906 100.5C23.0323 101 22.6656 101.396 22.1906 101.687C21.724 101.979 21.174 102.125 20.5406 102.125ZM20.5406 101.275C20.974 101.275 21.349 101.171 21.6656 100.962C21.9823 100.746 22.2281 100.45 22.4031 100.075C22.5781 99.7 22.6656 99.2667 22.6656 98.775C22.6656 98.0417 22.4698 97.4542 22.0781 97.0125C21.6948 96.5708 21.1823 96.35 20.5406 96.35C19.9073 96.35 19.3948 96.5708 19.0031 97.0125C18.6115 97.4542 18.4156 98.0417 18.4156 98.775C18.4156 99.2667 18.5031 99.7 18.6781 100.075C18.8531 100.45 19.099 100.746 19.4156 100.962C19.7406 101.171 20.1156 101.275 20.5406 101.275ZM31.8279 102V100.512L31.9529 100.55C31.7946 101.033 31.5029 101.417 31.0779 101.7C30.6613 101.983 30.1613 102.125 29.5779 102.125C29.0029 102.125 28.4988 101.987 28.0654 101.712C27.6404 101.437 27.3071 101.054 27.0654 100.562C26.8321 100.071 26.7154 99.4958 26.7154 98.8375C26.7154 98.1708 26.8363 97.5875 27.0779 97.0875C27.3196 96.5875 27.6571 96.2 28.0904 95.925C28.5238 95.65 29.0321 95.5125 29.6154 95.5125C30.2154 95.5125 30.7196 95.6583 31.1279 95.95C31.5363 96.2417 31.8154 96.6542 31.9654 97.1875L31.7654 97.2125V93H32.7654V102H31.8279ZM29.7654 101.25C30.4071 101.25 30.9071 101.033 31.2654 100.6C31.6321 100.158 31.8154 99.5583 31.8154 98.8C31.8154 98.0583 31.6321 97.4708 31.2654 97.0375C30.8988 96.6042 30.3988 96.3875 29.7654 96.3875C29.1321 96.3875 28.6363 96.6042 28.2779 97.0375C27.9196 97.4708 27.7404 98.0708 27.7404 98.8375C27.7404 99.5875 27.9196 100.179 28.2779 100.612C28.6363 101.037 29.1321 101.25 29.7654 101.25ZM38.846 102.125C38.4293 102.125 38.0585 102.042 37.7335 101.875C37.4085 101.7 37.1543 101.458 36.971 101.15C36.7877 100.833 36.696 100.471 36.696 100.062V95.625H37.696V99.8C37.696 100.283 37.8127 100.646 38.046 100.887C38.2877 101.129 38.6293 101.25 39.071 101.25C39.471 101.25 39.8252 101.158 40.1335 100.975C40.4418 100.792 40.6835 100.537 40.8585 100.212C41.0418 99.8792 41.1335 99.5 41.1335 99.075L41.296 100.587C41.0877 101.062 40.7627 101.437 40.321 101.712C39.8793 101.987 39.3877 102.125 38.846 102.125ZM41.196 102V100.5H41.1335V95.625H42.1335V102H41.196ZM48.6324 102.125C48.0491 102.125 47.5283 101.983 47.0699 101.7C46.6199 101.408 46.2616 101.012 45.9949 100.512C45.7366 100.004 45.6074 99.4292 45.6074 98.7875C45.6074 98.1458 45.7366 97.5792 45.9949 97.0875C46.2616 96.5958 46.6199 96.2083 47.0699 95.925C47.5283 95.6417 48.0449 95.5 48.6199 95.5C49.0949 95.5 49.5199 95.5917 49.8949 95.775C50.2783 95.9583 50.5908 96.2208 50.8324 96.5625C51.0824 96.8958 51.2408 97.2875 51.3074 97.7375H50.3824C50.2991 97.3292 50.1074 96.9958 49.8074 96.7375C49.5074 96.4792 49.1199 96.35 48.6449 96.35C48.2366 96.35 47.8824 96.45 47.5824 96.65C47.2824 96.85 47.0491 97.1333 46.8824 97.5C46.7158 97.8667 46.6324 98.2958 46.6324 98.7875C46.6324 99.2792 46.7158 99.7125 46.8824 100.087C47.0491 100.462 47.2824 100.754 47.5824 100.962C47.8908 101.171 48.2491 101.275 48.6574 101.275C49.1158 101.275 49.4991 101.15 49.8074 100.9C50.1158 100.642 50.3116 100.308 50.3949 99.9H51.3199C51.2449 100.342 51.0783 100.733 50.8199 101.075C50.5699 101.408 50.2574 101.667 49.8824 101.85C49.5074 102.033 49.0908 102.125 48.6324 102.125ZM57.298 102.113C56.5897 102.113 56.073 101.954 55.748 101.637C55.4314 101.312 55.273 100.846 55.273 100.237V94.1375L56.273 93.7625V100.225C56.273 100.583 56.3647 100.846 56.548 101.012C56.7314 101.179 57.0314 101.262 57.448 101.262C57.6147 101.262 57.7564 101.254 57.873 101.237C57.998 101.212 58.098 101.183 58.173 101.15V102C58.0897 102.033 57.9689 102.058 57.8105 102.075C57.6605 102.1 57.4897 102.113 57.298 102.113ZM53.9605 96.475V95.625H58.173V96.475H53.9605ZM66.0374 102V93H67.0624V102H66.0374ZM66.5624 102V101.1H71.6874V102H66.5624ZM74.9692 102V95.625H75.9692V102H74.9692ZM74.8942 94.175V93H76.0442V94.175H74.8942ZM82.1347 102.125C81.3513 102.125 80.7263 101.946 80.2597 101.588C79.793 101.221 79.5263 100.704 79.4597 100.037H80.4222C80.4805 100.446 80.6597 100.758 80.9597 100.975C81.2597 101.192 81.6597 101.3 82.1597 101.3C82.6013 101.3 82.9472 101.217 83.1972 101.05C83.4472 100.883 83.5722 100.646 83.5722 100.337C83.5722 100.121 83.5013 99.9333 83.3597 99.775C83.218 99.6083 82.9347 99.4708 82.5097 99.3625L81.4847 99.1C80.9013 98.95 80.4638 98.7208 80.1722 98.4125C79.8805 98.0958 79.7347 97.7208 79.7347 97.2875C79.7347 96.7375 79.9388 96.3042 80.3472 95.9875C80.7555 95.6625 81.3097 95.5 82.0097 95.5C82.7013 95.5 83.2638 95.6667 83.6972 96C84.1305 96.3333 84.3763 96.7958 84.4347 97.3875H83.4722C83.4138 97.0458 83.2555 96.7833 82.9972 96.6C82.7388 96.4167 82.3972 96.325 81.9722 96.325C81.5638 96.325 81.2472 96.4042 81.0222 96.5625C80.7972 96.7125 80.6847 96.9292 80.6847 97.2125C80.6847 97.4292 80.7638 97.6167 80.9222 97.775C81.0888 97.9333 81.3638 98.0667 81.7472 98.175L82.7472 98.45C83.3388 98.6083 83.7847 98.85 84.0847 99.175C84.3847 99.5 84.5347 99.8917 84.5347 100.35C84.5347 100.908 84.3222 101.346 83.8972 101.662C83.4722 101.971 82.8847 102.125 82.1347 102.125ZM90.4304 102.113C89.722 102.113 89.2054 101.954 88.8804 101.637C88.5637 101.312 88.4054 100.846 88.4054 100.237V94.1375L89.4054 93.7625V100.225C89.4054 100.583 89.497 100.846 89.6804 101.012C89.8637 101.179 90.1637 101.262 90.5804 101.262C90.747 101.262 90.8887 101.254 91.0054 101.237C91.1304 101.212 91.2304 101.183 91.3054 101.15V102C91.222 102.033 91.1012 102.058 90.9429 102.075C90.7929 102.1 90.622 102.113 90.4304 102.113ZM87.0929 96.475V95.625H91.3054V96.475H87.0929ZM94.5923 102V95.625H95.5923V102H94.5923ZM94.5173 94.175V93H95.6673V94.175H94.5173ZM99.5952 102V95.625H100.533V97.125H100.595V102H99.5952ZM104.158 102V97.825C104.158 97.3417 104.037 96.9792 103.795 96.7375C103.554 96.4958 103.195 96.375 102.72 96.375C102.304 96.375 101.933 96.4667 101.608 96.65C101.291 96.8333 101.041 97.0875 100.858 97.4125C100.683 97.7375 100.595 98.1167 100.595 98.55L100.433 97.0375C100.649 96.5625 100.979 96.1875 101.42 95.9125C101.87 95.6375 102.379 95.5 102.945 95.5C103.612 95.5 104.145 95.6917 104.545 96.075C104.954 96.45 105.158 96.9458 105.158 97.5625V102H104.158ZM111.616 104.688C110.857 104.688 110.224 104.508 109.716 104.15C109.216 103.8 108.911 103.333 108.803 102.75H109.753C109.845 103.083 110.049 103.346 110.366 103.538C110.691 103.738 111.128 103.837 111.678 103.837C112.328 103.837 112.82 103.658 113.153 103.3C113.486 102.95 113.653 102.433 113.653 101.75V100.387L113.778 100.412C113.636 100.896 113.353 101.283 112.928 101.575C112.503 101.858 111.999 102 111.416 102C110.857 102 110.366 101.867 109.941 101.6C109.516 101.325 109.186 100.946 108.953 100.462C108.72 99.9792 108.603 99.4167 108.603 98.775C108.603 98.125 108.724 97.5542 108.966 97.0625C109.207 96.5708 109.545 96.1917 109.978 95.925C110.42 95.65 110.932 95.5125 111.516 95.5125C112.116 95.5125 112.616 95.6583 113.016 95.95C113.424 96.2417 113.695 96.6583 113.828 97.2L113.716 97.2125V95.625H114.653V101.75C114.653 102.658 114.382 103.375 113.841 103.9C113.299 104.425 112.557 104.688 111.616 104.688ZM111.666 101.137C112.291 101.137 112.786 100.921 113.153 100.487C113.52 100.054 113.703 99.4667 113.703 98.725C113.703 98 113.52 97.4292 113.153 97.0125C112.786 96.5875 112.291 96.375 111.666 96.375C111.032 96.375 110.532 96.5875 110.166 97.0125C109.807 97.4375 109.628 98.0208 109.628 98.7625C109.628 99.4875 109.811 100.067 110.178 100.5C110.545 100.925 111.041 101.137 111.666 101.137ZM127.049 102.125C126.432 102.125 125.861 102.013 125.336 101.787C124.819 101.554 124.369 101.233 123.986 100.825C123.603 100.408 123.307 99.9208 123.099 99.3625C122.89 98.7958 122.786 98.175 122.786 97.5C122.786 96.825 122.89 96.2083 123.099 95.65C123.307 95.0833 123.599 94.5958 123.974 94.1875C124.357 93.7708 124.807 93.45 125.324 93.225C125.849 92.9917 126.419 92.875 127.036 92.875C127.711 92.875 128.315 93.0125 128.849 93.2875C129.39 93.5625 129.832 93.95 130.174 94.45C130.524 94.95 130.74 95.5333 130.824 96.2H129.799C129.699 95.4583 129.403 94.875 128.911 94.45C128.428 94.0167 127.807 93.8 127.049 93.8C126.407 93.8 125.844 93.9583 125.361 94.275C124.878 94.5833 124.503 95.0167 124.236 95.575C123.969 96.125 123.836 96.7667 123.836 97.5C123.836 98.2333 123.969 98.8792 124.236 99.4375C124.503 99.9875 124.878 100.421 125.361 100.737C125.844 101.046 126.403 101.2 127.036 101.2C127.811 101.2 128.444 100.983 128.936 100.55C129.436 100.117 129.732 99.5333 129.824 98.8H130.849C130.765 99.4667 130.549 100.05 130.199 100.55C129.857 101.05 129.415 101.437 128.874 101.712C128.34 101.987 127.732 102.125 127.049 102.125ZM137.002 102.125C136.394 102.125 135.856 101.983 135.39 101.7C134.923 101.408 134.556 101.012 134.29 100.512C134.023 100.012 133.89 99.4375 133.89 98.7875C133.89 98.1375 134.019 97.5667 134.277 97.075C134.544 96.575 134.915 96.1875 135.39 95.9125C135.865 95.6375 136.41 95.5 137.027 95.5C137.619 95.5 138.131 95.6292 138.565 95.8875C139.006 96.1458 139.344 96.5083 139.577 96.975C139.819 97.4417 139.94 97.9917 139.94 98.625C139.94 98.7083 139.935 98.7875 139.927 98.8625C139.927 98.9375 139.919 99.0208 139.902 99.1125H134.64V98.275H139.29L138.965 98.7375C138.965 97.9708 138.794 97.3833 138.452 96.975C138.119 96.5583 137.644 96.35 137.027 96.35C136.394 96.35 135.881 96.5708 135.49 97.0125C135.106 97.4458 134.915 98.0333 134.915 98.775C134.915 99.5333 135.106 100.142 135.49 100.6C135.881 101.05 136.402 101.275 137.052 101.275C137.46 101.275 137.819 101.187 138.127 101.012C138.435 100.829 138.66 100.571 138.802 100.237H139.752C139.544 100.821 139.194 101.283 138.702 101.625C138.219 101.958 137.652 102.125 137.002 102.125ZM143.445 102V95.625H144.383V97.25H144.445V102H143.445ZM144.445 98.675L144.283 97.1625C144.433 96.6208 144.699 96.2083 145.083 95.925C145.466 95.6417 145.908 95.5 146.408 95.5C146.616 95.5 146.758 95.5167 146.833 95.55V96.5125C146.791 96.4958 146.733 96.4875 146.658 96.4875C146.583 96.4792 146.491 96.475 146.383 96.475C145.749 96.475 145.266 96.6667 144.933 97.05C144.608 97.425 144.445 97.9667 144.445 98.675ZM152.829 102.113C152.121 102.113 151.604 101.954 151.279 101.637C150.963 101.312 150.804 100.846 150.804 100.237V94.1375L151.804 93.7625V100.225C151.804 100.583 151.896 100.846 152.079 101.012C152.263 101.179 152.563 101.262 152.979 101.262C153.146 101.262 153.288 101.254 153.404 101.237C153.529 101.212 153.629 101.183 153.704 101.15V102C153.621 102.033 153.5 102.058 153.342 102.075C153.192 102.1 153.021 102.113 152.829 102.113ZM149.492 96.475V95.625H153.704V96.475H149.492ZM156.991 102V95.625H157.991V102H156.991ZM156.916 94.175V93H158.066V94.175H156.916ZM162.495 102V94.725C162.495 94.1417 162.661 93.6875 162.995 93.3625C163.336 93.0375 163.853 92.875 164.545 92.875C164.711 92.875 164.841 92.8833 164.932 92.9C165.032 92.9167 165.116 92.9375 165.182 92.9625V93.75C165.124 93.7333 165.041 93.7167 164.932 93.7C164.832 93.6833 164.724 93.675 164.607 93.675C164.224 93.675 163.941 93.7708 163.757 93.9625C163.582 94.1542 163.495 94.425 163.495 94.775V102H162.495ZM166.52 102V95.625H167.52V102H166.52ZM161.182 96.475V95.625H167.082V96.475H161.182ZM166.445 94.175V93H167.595V94.175H166.445ZM173.892 102.125C173.309 102.125 172.788 101.983 172.33 101.7C171.88 101.408 171.521 101.012 171.255 100.512C170.996 100.004 170.867 99.4292 170.867 98.7875C170.867 98.1458 170.996 97.5792 171.255 97.0875C171.521 96.5958 171.88 96.2083 172.33 95.925C172.788 95.6417 173.305 95.5 173.88 95.5C174.355 95.5 174.78 95.5917 175.155 95.775C175.538 95.9583 175.851 96.2208 176.092 96.5625C176.342 96.8958 176.501 97.2875 176.567 97.7375H175.642C175.559 97.3292 175.367 96.9958 175.067 96.7375C174.767 96.4792 174.38 96.35 173.905 96.35C173.496 96.35 173.142 96.45 172.842 96.65C172.542 96.85 172.309 97.1333 172.142 97.5C171.976 97.8667 171.892 98.2958 171.892 98.7875C171.892 99.2792 171.976 99.7125 172.142 100.087C172.309 100.462 172.542 100.754 172.842 100.962C173.151 101.171 173.509 101.275 173.917 101.275C174.376 101.275 174.759 101.15 175.067 100.9C175.376 100.642 175.571 100.308 175.655 99.9H176.58C176.505 100.342 176.338 100.733 176.08 101.075C175.83 101.408 175.517 101.667 175.142 101.85C174.767 102.033 174.351 102.125 173.892 102.125ZM183.92 102C183.887 101.858 183.862 101.696 183.845 101.512C183.837 101.329 183.833 101.096 183.833 100.812H183.77V97.7625C183.77 97.2792 183.658 96.925 183.433 96.7C183.216 96.4667 182.862 96.35 182.37 96.35C181.887 96.35 181.499 96.45 181.208 96.65C180.924 96.8417 180.766 97.1167 180.733 97.475H179.77C179.812 96.8583 180.07 96.375 180.545 96.025C181.02 95.675 181.641 95.5 182.408 95.5C183.199 95.5 183.787 95.6875 184.17 96.0625C184.554 96.4375 184.745 97 184.745 97.75V100.812C184.745 100.996 184.758 101.187 184.783 101.387C184.808 101.579 184.841 101.783 184.883 102H183.92ZM181.733 102.125C181.074 102.125 180.549 101.967 180.158 101.65C179.774 101.325 179.583 100.883 179.583 100.325C179.583 99.7667 179.774 99.3333 180.158 99.025C180.541 98.7167 181.099 98.5 181.833 98.375L184.058 98V98.825L181.983 99.15C181.516 99.225 181.162 99.35 180.92 99.525C180.679 99.7 180.558 99.9542 180.558 100.287C180.558 100.612 180.666 100.858 180.883 101.025C181.108 101.192 181.437 101.275 181.87 101.275C182.429 101.275 182.883 101.15 183.233 100.9C183.591 100.642 183.77 100.308 183.77 99.9L183.933 100.787C183.799 101.212 183.537 101.542 183.145 101.775C182.762 102.008 182.291 102.125 181.733 102.125ZM191.052 102.113C190.344 102.113 189.827 101.954 189.502 101.637C189.185 101.312 189.027 100.846 189.027 100.237V94.1375L190.027 93.7625V100.225C190.027 100.583 190.119 100.846 190.302 101.012C190.485 101.179 190.785 101.262 191.202 101.262C191.369 101.262 191.51 101.254 191.627 101.237C191.752 101.212 191.852 101.183 191.927 101.15V102C191.844 102.033 191.723 102.058 191.564 102.075C191.414 102.1 191.244 102.113 191.052 102.113ZM187.714 96.475V95.625H191.927V96.475H187.714ZM195.214 102V95.625H196.214V102H195.214ZM195.139 94.175V93H196.289V94.175H195.139ZM202.842 102.125C202.217 102.125 201.667 101.979 201.192 101.687C200.717 101.396 200.347 101 200.08 100.5C199.822 99.9917 199.692 99.4208 199.692 98.7875C199.692 98.1458 199.826 97.5792 200.092 97.0875C200.359 96.5958 200.726 96.2083 201.192 95.925C201.667 95.6417 202.217 95.5 202.842 95.5C203.476 95.5 204.026 95.6417 204.492 95.925C204.967 96.2083 205.334 96.5958 205.592 97.0875C205.859 97.5792 205.992 98.1458 205.992 98.7875C205.992 99.4208 205.859 99.9917 205.592 100.5C205.334 101 204.967 101.396 204.492 101.687C204.026 101.979 203.476 102.125 202.842 102.125ZM202.842 101.275C203.276 101.275 203.651 101.171 203.967 100.962C204.284 100.746 204.53 100.45 204.705 100.075C204.88 99.7 204.967 99.2667 204.967 98.775C204.967 98.0417 204.772 97.4542 204.38 97.0125C203.997 96.5708 203.484 96.35 202.842 96.35C202.209 96.35 201.697 96.5708 201.305 97.0125C200.913 97.4542 200.717 98.0417 200.717 98.775C200.717 99.2667 200.805 99.7 200.98 100.075C201.155 100.45 201.401 100.746 201.717 100.962C202.042 101.171 202.417 101.275 202.842 101.275ZM209.492 102V95.625H210.43V97.125H210.492V102H209.492ZM214.055 102V97.825C214.055 97.3417 213.934 96.9792 213.692 96.7375C213.451 96.4958 213.092 96.375 212.617 96.375C212.201 96.375 211.83 96.4667 211.505 96.65C211.188 96.8333 210.938 97.0875 210.755 97.4125C210.58 97.7375 210.492 98.1167 210.492 98.55L210.33 97.0375C210.546 96.5625 210.876 96.1875 211.317 95.9125C211.767 95.6375 212.276 95.5 212.842 95.5C213.509 95.5 214.042 95.6917 214.442 96.075C214.851 96.45 215.055 96.9458 215.055 97.5625V102H214.055Z" fill="#959595"/>
</svg>
