<svg width="24" height="25" viewBox="0 0 24 25" fill="none" xmlns="http://www.w3.org/2000/svg">
<path d="M5.29229 6.2078C5.19931 6.11482 5.12556 6.00444 5.07524 5.88297C5.02492 5.76149 4.99902 5.63129 4.99902 5.4998C4.99902 5.36831 5.02492 5.23811 5.07524 5.11663C5.12556 4.99515 5.19931 4.88477 5.29229 4.7918C5.38526 4.69882 5.49564 4.62507 5.61712 4.57475C5.7386 4.52443 5.8688 4.49854 6.00029 4.49854C6.13177 4.49854 6.26197 4.52443 6.38345 4.57475C6.50493 4.62507 6.61531 4.69882 6.70829 4.7918L13.7083 11.7918C13.8014 11.8847 13.8753 11.995 13.9257 12.1165C13.9761 12.238 14.0021 12.3683 14.0021 12.4998C14.0021 12.6313 13.9761 12.7616 13.9257 12.8831C13.8753 13.0046 13.8014 13.1149 13.7083 13.2078L6.70829 20.2078C6.61531 20.3008 6.50493 20.3745 6.38345 20.4248C6.26197 20.4752 6.13177 20.5011 6.00029 20.5011C5.8688 20.5011 5.7386 20.4752 5.61712 20.4248C5.49564 20.3745 5.38526 20.3008 5.29229 20.2078C5.19931 20.1148 5.12556 20.0044 5.07524 19.883C5.02492 19.7615 4.99902 19.6313 4.99902 19.4998C4.99902 19.3683 5.02492 19.2381 5.07524 19.1166C5.12556 18.9952 5.19931 18.8848 5.29229 18.7918L11.5863 12.4998L5.29229 6.2078ZM20.0003 5.4998C20.0003 5.23458 19.8949 4.98023 19.7074 4.79269C19.5199 4.60516 19.2655 4.4998 19.0003 4.4998C18.7351 4.4998 18.4807 4.60516 18.2932 4.79269C18.1056 4.98023 18.0003 5.23458 18.0003 5.4998V19.4998C18.0003 19.765 18.1056 20.0194 18.2932 20.2069C18.4807 20.3944 18.7351 20.4998 19.0003 20.4998C19.2655 20.4998 19.5199 20.3944 19.7074 20.2069C19.8949 20.0194 20.0003 19.765 20.0003 19.4998V5.4998Z" fill="#727B87"/>
</svg>
