<svg width="24" height="25" viewBox="0 0 24 25" fill="none" xmlns="http://www.w3.org/2000/svg">
<path d="M18.7077 18.7922C18.8007 18.8852 18.8744 18.9956 18.9248 19.117C18.9751 19.2385 19.001 19.3687 19.001 19.5002C19.001 19.6317 18.9751 19.7619 18.9248 19.8834C18.8744 20.0048 18.8007 20.1152 18.7077 20.2082C18.6147 20.3012 18.5044 20.3749 18.3829 20.4252C18.2614 20.4756 18.1312 20.5015 17.9997 20.5015C17.8682 20.5015 17.738 20.4756 17.6165 20.4252C17.4951 20.3749 17.3847 20.3012 17.2917 20.2082L10.2917 13.2082C10.1986 13.1153 10.1247 13.005 10.0743 12.8835C10.0239 12.762 9.99793 12.6317 9.99793 12.5002C9.99793 12.3687 10.0239 12.2384 10.0743 12.1169C10.1247 11.9954 10.1986 11.8851 10.2917 11.7922L17.2917 4.7922C17.3847 4.69923 17.4951 4.62547 17.6165 4.57516C17.738 4.52484 17.8682 4.49894 17.9997 4.49894C18.1312 4.49894 18.2614 4.52484 18.3829 4.57516C18.5044 4.62547 18.6147 4.69923 18.7077 4.7922C18.8007 4.88518 18.8744 4.99556 18.9248 5.11703C18.9751 5.23851 19.001 5.36871 19.001 5.5002C19.001 5.63169 18.9751 5.76189 18.9248 5.88337C18.8744 6.00485 18.8007 6.11523 18.7077 6.2082L12.4137 12.5002L18.7077 18.7922ZM3.99971 19.5002C3.99971 19.7654 4.10507 20.0198 4.29261 20.2073C4.48014 20.3948 4.7345 20.5002 4.99971 20.5002C5.26493 20.5002 5.51929 20.3948 5.70682 20.2073C5.89436 20.0198 5.99971 19.7654 5.99971 19.5002L5.99972 5.5002C5.99972 5.23498 5.89436 4.98063 5.70682 4.79309C5.51929 4.60556 5.26493 4.5002 4.99972 4.5002C4.7345 4.5002 4.48014 4.60556 4.29261 4.79309C4.10507 4.98063 3.99972 5.23498 3.99972 5.5002L3.99971 19.5002Z" fill="#727B87"/>
</svg>
